<svg id="Layer_1" data-name="Layer 1" xmlns="http://www.w3.org/2000/svg" xmlns:xlink="http://www.w3.org/1999/xlink" viewBox="0 0 290.75 157.97"><defs><style>.cls-1{fill:none;}.cls-2{clip-path:url(#clip-path);}.cls-3{clip-path:url(#clip-path-2);}.cls-4{fill:#5a89c6;}.cls-44,.cls-5{fill:#373535;}.cls-6{fill:#b93839;}.cls-7{fill:#e25542;}.cls-8{fill:#f3c730;}.cls-9{fill:#f58f3b;}.cls-10{fill:#81c34e;}.cls-11{fill:#2e9050;}.cls-12{font-size:5.13px;}.cls-12,.cls-13,.cls-14,.cls-15,.cls-16,.cls-17,.cls-18,.cls-19,.cls-20,.cls-21,.cls-22,.cls-23,.cls-24,.cls-25,.cls-26,.cls-27,.cls-28,.cls-29,.cls-30,.cls-31,.cls-32,.cls-33,.cls-34,.cls-35,.cls-36,.cls-37,.cls-38,.cls-39,.cls-40,.cls-41,.cls-42,.cls-43{fill:#fff;}.cls-12,.cls-13,.cls-14,.cls-15,.cls-16,.cls-17,.cls-18,.cls-19,.cls-20,.cls-21,.cls-22,.cls-23,.cls-24,.cls-25,.cls-26,.cls-27,.cls-28,.cls-29,.cls-30,.cls-31,.cls-32,.cls-33,.cls-34,.cls-35,.cls-36,.cls-37,.cls-38,.cls-39,.cls-40,.cls-41,.cls-42,.cls-43,.cls-44{font-family:MyriadPro-BoldCond, MyriadPro BoldCond;font-weight:700;}.cls-13{font-size:5.13px;}.cls-14{font-size:5.13px;}.cls-15{font-size:5.13px;}.cls-16{font-size:5.13px;}.cls-17{font-size:5.13px;}.cls-18{font-size:5.13px;}.cls-19{font-size:5.13px;}.cls-20{font-size:5.13px;}.cls-21{font-size:5.13px;}.cls-22{font-size:5.13px;}.cls-23{font-size:5.13px;}.cls-24{font-size:5.13px;}.cls-25{font-size:5.13px;}.cls-26{font-size:5.13px;}.cls-27{font-size:5.13px;}.cls-28{font-size:5.13px;}.cls-29{font-size:5.13px;}.cls-30{font-size:5.13px;}.cls-31{font-size:5.13px;}.cls-32{font-size:5.13px;}.cls-33{font-size:5.13px;}.cls-34{font-size:5.13px;}.cls-35{font-size:5.13px;}.cls-36{font-size:5.13px;}.cls-37{font-size:5.13px;}.cls-38{font-size:5.13px;}.cls-39{font-size:5.13px;}.cls-40{font-size:5.13px;}.cls-41{font-size:5.13px;}.cls-42{font-size:5.13px;}.cls-43{font-size:5.13px;}.cls-44{font-size:10.41px;}.cls-45{letter-spacing:-0.01em;}.cls-46{letter-spacing:0em;}</style><clipPath id="clip-path" transform="translate(-54.5 -72.11)"><rect class="cls-1" x="43.8" y="-44.4" width="308.39" height="400.9"/></clipPath><clipPath id="clip-path-2" transform="translate(-54.5 -72.11)"><rect class="cls-1" x="43.8" y="-44.4" width="308.39" height="400.9"/></clipPath></defs><title>credit q 2</title><g class="cls-2"><g class="cls-3"><path class="cls-4" d="M326.3,213.3l14.91,16.78H325l-9.88-11.84a35.18,35.18,0,0,1-8.39,1c-18.37,0-33.37-13.8-33.37-33.38s15-33.28,33.37-33.28c18.55,0,33.28,13.8,33.28,33.28,0,11.84-5.41,21.54-13.7,27.41M306.71,205c10.35,0,17.49-7.47,17.49-19.13s-7.14-19-17.49-19-17.57,7.31-17.57,19S296.29,205,306.71,205" transform="translate(-54.5 -72.11)"/><path class="cls-4" d="M155.2,143.61S117.48,122,147.48,93.06c0,0,34.29-29.28,85.55-9.57,51.3,22.46,25,73.58-41,70.61l-14.52-1.94-.4,22.92s26.63,8.65,59.15-5.77,32.56-34.6,31.41-55.5c-1-17.67-18.23-30.38-38.21-37-12.7-4.22-27.56-4.82-35.4-4.66-4.74.1-24.83,1.54-41.67,10.66-11.66,6.31-22.7,17.29-23.89,31.25,0,0-7.3,39.42,26.31,52.87Z" transform="translate(-54.5 -72.11)"/><polygon class="cls-5" points="100.35 71.25 99.28 94.37 100.91 95.06 136.26 43.67 100.35 71.25"/><path class="cls-5" d="M98.65,173.25a21.67,21.67,0,0,0-4.29-4.82,12.58,12.58,0,0,0-4.12-2,17.12,17.12,0,0,0-4.62-.62A14.17,14.17,0,0,0,79,167.37a16.77,16.77,0,0,0-5.28,4.33,21,21,0,0,0-3.5,6.37,23.08,23.08,0,0,0-1.28,7.7,23.46,23.46,0,0,0,1.26,7.75,20.36,20.36,0,0,0,3.46,6.35,16.55,16.55,0,0,0,5.26,4.31,14.31,14.31,0,0,0,6.71,1.59,13.47,13.47,0,0,0,4.75-.83,16.19,16.19,0,0,0,7.17-5.31A15,15,0,0,0,99.67,196l13.67,3.82a27.23,27.23,0,0,1-3.87,7.71,26.62,26.62,0,0,1-6.13,6.13,29.44,29.44,0,0,1-8.07,4.08,30.44,30.44,0,0,1-9.65,1.48A28.9,28.9,0,0,1,77.25,218a30.24,30.24,0,0,1-13.73-8.57,33.14,33.14,0,0,1-4.82-6.77,35.49,35.49,0,0,1-4.2-16.88,34.61,34.61,0,0,1,2.42-13,33.62,33.62,0,0,1,6.62-10.57,31,31,0,0,1,9.87-7.14,28.85,28.85,0,0,1,12.21-2.61,25.69,25.69,0,0,1,8.78,1.3c16.1,5.82,18.94,19.46,18.94,19.46Z" transform="translate(-54.5 -72.11)"/><path class="cls-5" d="M339.94,155.4a2.53,2.53,0,0,0-.53-.6,1.35,1.35,0,0,0-.51-.25,2.12,2.12,0,0,0-.57-.08,1.77,1.77,0,0,0-.82.2,2,2,0,0,0-.65.54,2.27,2.27,0,0,0-.43.78,2.76,2.76,0,0,0-.16,1,2.91,2.91,0,0,0,.15,1,2.72,2.72,0,0,0,.43.79,2.08,2.08,0,0,0,.65.53,1.78,1.78,0,0,0,.83.2,1.63,1.63,0,0,0,.59-.1,2.19,2.19,0,0,0,.5-.27,2.4,2.4,0,0,0,.39-.39,1.87,1.87,0,0,0,.26-.45l1.69.47a3.4,3.4,0,0,1-.48.95,3.23,3.23,0,0,1-.76.76,3.56,3.56,0,0,1-1,.51,3.87,3.87,0,0,1-1.2.18,3.52,3.52,0,0,1-1-.15,3.64,3.64,0,0,1-.92-.41,3.74,3.74,0,0,1-.78-.65,4.26,4.26,0,0,1-.6-.84,4.43,4.43,0,0,1-.38-1,4.48,4.48,0,0,1-.14-1.1,4.31,4.31,0,0,1,.3-1.61,4.21,4.21,0,0,1,.82-1.31,4,4,0,0,1,1.22-.88,3.65,3.65,0,0,1,1.51-.32,3.17,3.17,0,0,1,1.09.16,3.57,3.57,0,0,1,2.34,2.41Z" transform="translate(-54.5 -72.11)"/><path class="cls-5" d="M115.06,181.06h20.18a14.61,14.61,0,0,1,5.26.89,11.75,11.75,0,0,1,3.91,2.35,10.25,10.25,0,0,1,3.27,7.49,12.27,12.27,0,0,1-.42,3.39,8.4,8.4,0,0,1-1.21,2.6,8.59,8.59,0,0,1-2,2,15.22,15.22,0,0,1-2.64,1.57,6.47,6.47,0,0,1,2.27,2,9.6,9.6,0,0,1,1.48,3.49l1.28,5h3.15l.05,7.42H138.62l-1.51-9.06a12.12,12.12,0,0,0-.7-2.78,5.23,5.23,0,0,0-1.24-1.91,4.85,4.85,0,0,0-1.9-1.1,9.08,9.08,0,0,0-2.66-.35h-3.24v8.3h3.49v6.9h-15.8v-6.9h4V188h-4ZM127.37,188v9.23h5A11.85,11.85,0,0,0,135,197a5.69,5.69,0,0,0,2-.83,4,4,0,0,0,1.26-1.42,4.45,4.45,0,0,0,.44-2,4.11,4.11,0,0,0-1.59-3.45,7.51,7.51,0,0,0-4.66-1.23Z" transform="translate(-54.5 -72.11)"/><polygon class="cls-5" points="97.11 108.95 127.47 108.95 127.47 121.97 119.26 121.97 119.26 116.55 109.47 116.55 109.47 124.08 117.05 124.08 117.05 131.38 109.47 131.38 109.47 140.21 119.26 140.21 119.26 133.44 127.47 133.44 127.47 147.11 97.11 147.11 97.11 140.21 101.11 140.21 101.11 116.55 97.11 116.55 97.11 108.95"/><path class="cls-5" d="M183.75,181.06H198.4a18.49,18.49,0,0,1,5,.68,18.81,18.81,0,0,1,4.48,1.92,18.53,18.53,0,0,1,3.77,3,18.16,18.16,0,0,1,2.91,3.84,18.67,18.67,0,0,1,1.86,4.56,19.92,19.92,0,0,1,0,10.17,19.13,19.13,0,0,1-4.77,8.44,18.36,18.36,0,0,1-13.27,5.6H183.75v-6.9h3V188h-3Zm11.4,6.93v24.33h3.2a8.1,8.1,0,0,0,3.85-.95,10.06,10.06,0,0,0,3.14-2.61,12.89,12.89,0,0,0,2.12-3.87,14.47,14.47,0,0,0,.78-4.8,14.27,14.27,0,0,0-.78-4.76,12.78,12.78,0,0,0-2.12-3.85,9.76,9.76,0,0,0-3.14-2.56,8.32,8.32,0,0,0-3.85-.93Z" transform="translate(-54.5 -72.11)"/><polygon class="cls-5" points="164.74 108.95 181.07 108.95 181.07 115.85 177.05 115.85 177.05 140.21 181.07 140.21 181.07 147.11 164.74 147.11 164.74 140.21 168.69 140.21 168.69 115.85 164.74 115.85 164.74 108.95"/><polygon class="cls-5" points="192.09 140.21 196.04 140.21 196.04 115.62 191.41 115.62 191.41 120.56 183.21 120.56 183.21 108.95 217.91 108.95 217.91 120.56 209.66 120.56 209.66 115.62 204.4 115.62 204.4 140.21 208.43 140.21 208.43 147.11 192.09 147.11 192.09 140.21"/><path class="cls-6" d="M156.16,137.92c-1.46.7-2.57,1.35-2.57,1.35s-15.33-11.67-11.3-30.33L155,112.59c-3,8.91,1.19,25.33,1.19,25.33" transform="translate(-54.5 -72.11)"/><path class="cls-7" d="M168.22,96.68c-5.87,3.63-9.23,8.35-13,15l-12.72-3.59C145.4,100.25,154,92.75,164,87.87Z" transform="translate(-54.5 -72.11)"/><path class="cls-8" d="M231.7,98.54c-6.2-4.47-14.78-7.67-24.55-8.87l.38-8.4A77.33,77.33,0,0,1,236,89.34Z" transform="translate(-54.5 -72.11)"/><path class="cls-9" d="M206.49,89.65a40.44,40.44,0,0,0-8.15-.72,59.82,59.82,0,0,0-29.25,7.27l-4.23-8.64a83.78,83.78,0,0,1,33.76-6.71c2.28,0,6.07.24,8.28.4Z" transform="translate(-54.5 -72.11)"/><path class="cls-10" d="M241.87,120.32a19,19,0,0,0-1.32-11.41,28.16,28.16,0,0,0-8.23-10l4.45-9.25c4.91,2.12,22.19,14.71,17.83,32.88Z" transform="translate(-54.5 -72.11)"/><path class="cls-11" d="M180.12,149.08l2.43-6.47c4.95,1.21,46.83,8,59-21.1l12.73,2.72C248.65,140,226,151,198.62,151a91,91,0,0,1-18.2-1.81" transform="translate(-54.5 -72.11)"/><path class="cls-8" d="M230.46,101c-5.74-4.64-14-8-23.41-9.28l.1-1C216.67,92,225,95.22,231,99.77Z" transform="translate(-54.5 -72.11)"/><path class="cls-9" d="M206.29,91.64a63,63,0,0,0-7.86-.48c-11,0-21,2.78-28.36,7.28l-.56-1.1c7.55-4.48,17.73-7.22,28.92-7.22a66.25,66.25,0,0,1,7.93.47Z" transform="translate(-54.5 -72.11)"/><path class="cls-6" d="M156.5,113l1.69.38c-2.84,9.42.81,23.46.81,23.46s-.36.11-1.21.42C153.89,123,156.5,113,156.5,113" transform="translate(-54.5 -72.11)"/><path class="cls-7" d="M169.32,98.85c-5,3.31-9.19,8.58-10.82,13.22l-1.51-.35c1.64-5.23,5.9-10.27,11.63-13.91Z" transform="translate(-54.5 -72.11)"/><path class="cls-10" d="M238.88,119.36a22.88,22.88,0,0,0,.15-2.62c0-5.64-2.89-10.85-7.79-15.07l.6-1.23c5.54,4.5,8.84,10.16,8.84,16.3a17.49,17.49,0,0,1-.26,3Z" transform="translate(-54.5 -72.11)"/><path class="cls-11" d="M182.82,140.36a61.78,61.78,0,0,0,15.61,2c20.5,0,37.44-9.19,40.21-21.62l1.53.46c-3.17,12.73-20.65,22.2-41.74,22.2a64.42,64.42,0,0,1-15.87-1.94Z" transform="translate(-54.5 -72.11)"/></g><text class="cls-12" transform="translate(98.75 57.53) rotate(-118.53)">V</text><text class="cls-13" transform="translate(97.67 55.56) rotate(-113.99)">E</text><text class="cls-14" transform="translate(96.87 53.78) rotate(-109.19)">R</text><text class="cls-15" transform="translate(96.11 51.57) rotate(-104.12)">Y</text><text class="cls-16" transform="matrix(-0.19, -0.98, 0.98, -0.19, 95.63, 49.62)"> </text><text class="cls-17" transform="translate(95.46 48.88) rotate(-96.71)">B</text><text class="cls-14" transform="translate(95.18 46.51) rotate(-90.64)">A</text><text class="cls-15" transform="matrix(0.1, -1, 1, 0.1, 95.15, 44.25)">D</text><text class="cls-18" transform="matrix(0.33, -0.95, 0.95, 0.33, 99.06, 35.87)"> </text><text class="cls-19" transform="matrix(0.36, -0.93, 0.93, 0.36, 99.31, 35.12)"> </text><text class="cls-20" transform="matrix(0.4, -0.92, 0.92, 0.4, 99.6, 34.39)"> </text><text class="cls-21" transform="translate(99.9 33.67) rotate(-64.53)"> </text><text class="cls-22" transform="matrix(0.5, -0.87, 0.87, 0.5, 100.19, 32.98)">B</text><text class="cls-23" transform="matrix(0.6, -0.8, 0.8, 0.6, 101.38, 30.92)">A</text><text class="cls-24" transform="translate(102.71 29.14) rotate(-44.87)">D</text><text class="cls-25" transform="translate(124.94 17.25) rotate(-14.53)">N</text><text class="cls-26" transform="translate(127.47 16.6) rotate(-11.93)">O</text><text class="cls-27" transform="translate(129.85 16.1) rotate(-9.63)">R</text><text class="cls-25" transform="matrix(0.99, -0.12, 0.12, 0.99, 132.19, 15.69)">M</text><text class="cls-28" transform="translate(135.39 15.3) rotate(-4.81)">A</text><text class="cls-29" transform="translate(137.71 15.11) rotate(-3.13)">L</text><text class="cls-28" transform="translate(161.17 16.99) rotate(16.68)">G</text><text class="cls-30" transform="matrix(0.94, 0.33, -0.33, 0.94, 163.45, 17.67)">O</text><text class="cls-15" transform="translate(165.74 18.48) rotate(21.99)">O</text><text class="cls-23" transform="translate(167.99 19.38) rotate(24.6)">D</text><text class="cls-31" transform="matrix(0.66, 0.75, -0.75, 0.66, 183.92, 26.97)">V</text><text class="cls-29" transform="matrix(0.6, 0.8, -0.8, 0.6, 185.41, 28.67)">E</text><text class="cls-32" transform="matrix(0.54, 0.84, -0.84, 0.54, 186.6, 30.22)">R</text><text class="cls-33" transform="translate(187.87 32.19) rotate(61.64)">Y</text><text class="cls-34" transform="matrix(0.43, 0.9, -0.9, 0.43, 188.82, 33.97)"> </text><text class="cls-31" transform="translate(189.17 34.65) rotate(68.16)">G</text><text class="cls-21" transform="translate(190.04 36.82) rotate(73.64)">O</text><text class="cls-35" transform="translate(190.72 39.11) rotate(79.33)">O</text><text class="cls-36" transform="translate(191.17 41.44) rotate(85.14)">D</text><text class="cls-16" transform="matrix(-0.51, 0.86, -0.86, -0.51, 188.12, 54.18)"> </text><text class="cls-37" transform="matrix(-0.53, 0.85, -0.85, -0.53, 187.72, 54.85)"> </text><text class="cls-22" transform="translate(187.3 55.53) rotate(123.79)"> </text><text class="cls-38" transform="translate(186.85 56.18) rotate(125.28)"> </text><text class="cls-39" transform="matrix(-0.6, 0.8, -0.8, -0.6, 186.4, 56.83)"> </text><text class="cls-34" transform="translate(185.92 57.47) rotate(128.16)"> </text><text class="cls-22" transform="matrix(-0.64, 0.77, -0.77, -0.64, 185.43, 58.09)"> </text><text class="cls-36" transform="matrix(-0.66, 0.76, -0.76, -0.66, 184.92, 58.71)"> </text><text class="cls-12" transform="translate(184.4 59.31) rotate(132.3)"> </text><text class="cls-37" transform="matrix(-0.69, 0.72, -0.72, -0.69, 183.87, 59.9)"> </text><text class="cls-38" transform="matrix(-0.71, 0.71, -0.71, -0.71, 183.32, 60.47)"> </text><text class="cls-40" transform="translate(182.76 61.03) rotate(136.24)"> </text><text class="cls-41" transform="matrix(-0.74, 0.68, -0.68, -0.74, 182.18, 61.59)"> </text><text class="cls-35" transform="matrix(-0.75, 0.66, -0.66, -0.75, 181.6, 62.12)"> </text><text class="cls-32" transform="matrix(-0.77, 0.64, -0.64, -0.77, 180.99, 62.65)"> </text><text class="cls-42" transform="translate(180.4 63.16) rotate(142.14)">E</text><text class="cls-16" transform="translate(178.84 64.37) rotate(145.11)">X</text><text class="cls-30" transform="translate(177.18 65.54) rotate(147.94)">C</text><text class="cls-38" transform="matrix(-0.87, 0.49, -0.49, -0.87, 175.5, 66.59)">E</text><text class="cls-43" transform="matrix(-0.89, 0.45, -0.45, -0.89, 173.77, 67.56)">L</text><text class="cls-33" transform="translate(172.06 68.42) rotate(155.55)">L</text><text class="cls-23" transform="matrix(-0.93, 0.38, -0.38, -0.93, 170.32, 69.22)">E</text><text class="cls-32" transform="translate(168.49 69.97) rotate(160.45)">N</text><text class="cls-31" transform="translate(166.03 70.84) rotate(162.88)">T</text><text class="cls-44" transform="translate(132.75 38.15)">S<tspan class="cls-45" x="5.13" y="0">C</tspan><tspan class="cls-46" x="11.05" y="0">ORE</tspan></text><g class="cls-3"><path class="cls-5" d="M345.25,157.07a7.09,7.09,0,1,1-7.09-7.09,7.09,7.09,0,0,1,7.09,7.09m-7.08-6.18a6.16,6.16,0,1,0,6.16,6.16,6.16,6.16,0,0,0-6.16-6.16" transform="translate(-54.5 -72.11)"/></g></g></svg>